<svg xmlns="http://www.w3.org/2000/svg" width="79" height="79" viewBox="0 0 79 79" fill="none">
<mask id="mask0_602_101" style="mask-type:alpha" maskUnits="userSpaceOnUse" x="0" y="0" width="79" height="79">
<rect width="79" height="79" fill="#D9D9D9"/>
</mask>
<g mask="url(#mask0_602_101)">
<path d="M39.5 52.6666L52.6667 39.4999L39.5 26.3333L34.8917 30.9416L40.1584 36.2083H26.3334V42.7916H40.1584L34.8917 48.0583L39.5 52.6666ZM39.5 72.4166C34.9466 72.4166 30.6674 71.5525 26.6625 69.8244C22.6577 68.0963 19.174 65.751 16.2115 62.7885C13.249 59.826 10.9037 56.3423 9.17556 52.3374C7.44744 48.3326 6.58337 44.0534 6.58337 39.4999C6.58337 34.9464 7.44744 30.6673 9.17556 26.6624C10.9037 22.6576 13.249 19.1739 16.2115 16.2114C19.174 13.2489 22.6577 10.9036 26.6625 9.17544C30.6674 7.44731 34.9466 6.58325 39.5 6.58325C44.0535 6.58325 48.3327 7.44731 52.3375 9.17544C56.3424 10.9036 59.8261 13.2489 62.7886 16.2114C65.7511 19.1739 68.0964 22.6576 69.8245 26.6624C71.5526 30.6673 72.4167 34.9464 72.4167 39.4999C72.4167 44.0534 71.5526 48.3326 69.8245 52.3374C68.0964 56.3423 65.7511 59.826 62.7886 62.7885C59.8261 65.751 56.3424 68.0963 52.3375 69.8244C48.3327 71.5525 44.0535 72.4166 39.5 72.4166ZM39.5 65.8333C46.8514 65.8333 53.0782 63.2822 58.1803 58.1801C63.2823 53.078 65.8334 46.8513 65.8334 39.4999C65.8334 32.1485 63.2823 25.9218 58.1803 20.8197C53.0782 15.7176 46.8514 13.1666 39.5 13.1666C32.1487 13.1666 25.9219 15.7176 20.8198 20.8197C15.7177 25.9218 13.1667 32.1485 13.1667 39.4999C13.1667 46.8513 15.7177 53.078 20.8198 58.1801C25.9219 63.2822 32.1487 65.8333 39.5 65.8333Z" fill="#F2C94C"/>
</g>
</svg>