<svg xmlns="http://www.w3.org/2000/svg" width="79" height="79" viewBox="0 0 79 79" fill="none">
<mask id="mask0_165_431" style="mask-type:alpha" maskUnits="userSpaceOnUse" x="0" y="0" width="79" height="79">
<rect width="79" height="79" transform="matrix(-1 0 0 1 79 0)" fill="#D9D9D9"/>
</mask>
<g mask="url(#mask0_165_431)">
<path d="M39.4998 52.6666L26.3332 39.4999L39.4998 26.3333L44.1082 30.9416L38.8415 36.2083H52.6665V42.7916H38.8415L44.1082 48.0583L39.4998 52.6666ZM39.4998 72.4166C44.0533 72.4166 48.3325 71.5525 52.3373 69.8244C56.3422 68.0963 59.8259 65.751 62.7884 62.7885C65.7509 59.826 68.0962 56.3423 69.8243 52.3374C71.5524 48.3326 72.4165 44.0534 72.4165 39.4999C72.4165 34.9464 71.5524 30.6673 69.8243 26.6624C68.0962 22.6576 65.7509 19.1739 62.7884 16.2114C59.8259 13.2489 56.3422 10.9036 52.3373 9.17544C48.3325 7.44731 44.0533 6.58325 39.4998 6.58325C34.9464 6.58325 30.6672 7.44731 26.6623 9.17544C22.6575 10.9036 19.1738 13.2489 16.2113 16.2114C13.2488 19.1739 10.9035 22.6576 9.17536 26.6624C7.44724 30.6673 6.58317 34.9464 6.58317 39.4999C6.58317 44.0534 7.44724 48.3326 9.17536 52.3374C10.9035 56.3423 13.2488 59.826 16.2113 62.7885C19.1738 65.751 22.6575 68.0963 26.6623 69.8244C30.6672 71.5525 34.9464 72.4166 39.4998 72.4166ZM39.4998 65.8333C32.1484 65.8333 25.9217 63.2822 20.8196 58.1801C15.7175 53.078 13.1665 46.8513 13.1665 39.4999C13.1665 32.1485 15.7175 25.9218 20.8196 20.8197C25.9217 15.7176 32.1484 13.1666 39.4998 13.1666C46.8512 13.1666 53.078 15.7176 58.18 20.8197C63.2821 25.9218 65.8332 32.1485 65.8332 39.4999C65.8332 46.8513 63.2821 53.078 58.18 58.1801C53.078 63.2822 46.8512 65.8333 39.4998 65.8333Z" fill="#F2C94C"/>
</g>
</svg>