<svg xmlns="http://www.w3.org/2000/svg" width="30" height="30" viewBox="0 0 41 41" fill="none">
<path d="M40.0999 11.8937C40.0754 10.2026 39.7626 8.52486 39.1639 6.94321C38.1161 4.24233 35.9827 2.10664 33.2818 1.06114C31.7203 0.473604 30.0694 0.158613 28.3983 0.122869C26.2493 0.0268079 25.5679 0 20.1125 0C14.6571 0 13.9579 1.498e-07 11.8245 0.122869C10.1557 0.158613 8.50476 0.473604 6.94321 1.06114C4.24233 2.10664 2.10664 4.24233 1.06114 6.94321C0.473603 8.50476 0.156379 10.1557 0.125103 11.8245C0.0290417 13.9758 0 14.6571 0 20.1125C0 25.5679 -1.66444e-08 26.2649 0.125103 28.4006C0.158612 30.0716 0.473603 31.7203 1.06114 33.2863C2.10888 35.9849 4.24233 38.1206 6.94544 39.1661C8.50029 39.7738 10.1512 40.1178 11.8267 40.1714C13.978 40.2675 14.6594 40.2965 20.1147 40.2965C25.5701 40.2965 26.2694 40.2965 28.4028 40.1714C30.0716 40.1379 31.7225 39.8229 33.2863 39.2354C35.9872 38.1876 38.1206 36.052 39.1684 33.3533C39.7559 31.7895 40.0709 30.1408 40.1044 28.4676C40.2005 26.3185 40.2295 25.6371 40.2295 20.1795C40.225 14.7242 40.225 14.0316 40.0999 11.8937ZM20.0991 30.429C14.3935 30.429 9.77142 25.8069 9.77142 20.1013C9.77142 14.3958 14.3935 9.77366 20.0991 9.77366C25.8002 9.77366 30.4268 14.3958 30.4268 20.1013C30.4268 25.8069 25.8002 30.429 20.0991 30.429ZM30.8378 11.7999C29.5042 11.7999 28.4296 10.7231 28.4296 9.39165C28.4296 8.0602 29.5042 6.98342 30.8378 6.98342C32.1671 6.98342 33.2438 8.0602 33.2438 9.39165C33.2438 10.7231 32.1671 11.7999 30.8378 11.7999Z" fill="black"/>
<path d="M20.0993 26.81C23.8043 26.81 26.8079 23.8064 26.8079 20.1013C26.8079 16.3963 23.8043 13.3927 20.0993 13.3927C16.3942 13.3927 13.3906 16.3963 13.3906 20.1013C13.3906 23.8064 16.3942 26.81 20.0993 26.81Z" fill="black"/>
</svg>