<svg xmlns="http://www.w3.org/2000/svg" width="28" height="28" viewBox="0 0 28 28" fill="none">
<rect width="28" height="28" rx="4" fill="black"/>
<path d="M22.8737 17.805V18.7839C22.8737 19.4317 22.4432 19.9858 21.8399 20.2021C21.8402 20.2267 21.8408 20.2512 21.8408 20.2758V22.9451C23.0952 22.6978 24.0408 21.6398 24.0408 20.3759V17.8049L22.8737 17.805Z" fill="#FFEBB9"/>
<path d="M14.7675 10.4485V9.42492C14.7675 8.53893 14.4219 7.6802 13.794 7.00657C13.2062 6.376 12.4331 5.97534 11.5976 5.86416C11.4127 5.69412 11.075 5.38391 10.7364 5.07428C10.4436 4.80639 10.2096 4.59301 10.0403 4.44008C9.94329 4.35238 9.86196 4.27932 9.80428 4.22844C9.67809 4.11712 9.44341 3.90968 9.09566 4.04377L8.7235 4.18757L8.77233 6.38572L8.68062 6.44863C8.08217 6.85944 7.68132 7.49175 7.57833 8.18581L5.98195 9.19748L5.97661 9.89255C5.9728 10.4227 6.18703 10.9216 6.5801 11.2978C6.97332 11.6739 7.497 11.8811 8.05501 11.8811H9.27068V12.9003C9.27068 13.4066 9.35628 13.9069 9.52474 14.3873L10.4259 16.9555V20.8566C9.48049 21.0677 8.77309 21.8753 8.77095 22.8365L8.76897 22.9984L12.2484 22.9988C12.3436 22.1331 13.0121 21.4263 13.8855 21.229V20.5487C13.8855 18.6875 15.4793 17.1734 17.4384 17.1734H17.5243V18.2822H17.4384C16.1229 18.2822 15.0527 19.2989 15.0527 20.5487V22.2827H14.3812C13.9194 22.2827 13.5311 22.589 13.4295 22.999L20.7081 23.0001V20.2759C20.7081 17.8558 19.7532 15.5465 18.0193 13.7735L14.7675 10.4485Z" fill="#FFEBB9"/>
</svg>